<?xml version="1.0" encoding="iso-8859-1"?>
<!-- Uploaded to: SVG Repo, www.svgrepo.com, Generator: SVG Repo Mixer Tools -->
<svg height="800px" width="800px" version="1.1" id="Layer_1" xmlns="http://www.w3.org/2000/svg" xmlns:xlink="http://www.w3.org/1999/xlink" 
	 viewBox="0 0 511.999 511.999" xml:space="preserve">
<path style="fill:#ED2F49;" d="M371.615,181.757L239.647,361.8L132.26,461.846l-45.677-7.233l211.761-279.89
	c6.994-9.249,10.698-20.295,10.698-31.94c0-29.249-23.792-53.041-53.041-53.041s-53.041,23.792-53.041,53.041h-40.786
	c0-51.734,42.093-115.614,93.827-115.614S371.615,73.862,371.615,181.757z"/>
<path style="fill:#FF455E;" d="M256,20.15v28.806c51.734,0,93.827,42.093,93.827,93.827c0,20.6-6.558,40.165-18.966,56.549
	L132.26,461.846l19.38,41.984l211.75-279.89c17.811-23.53,27.189-54.025,27.189-83.579C390.579,79.791,329.907,27.582,256,20.15z"/>
<path style="fill:#FE7074;" d="M213.659,174.727c-7-9.252-10.701-20.298-10.701-31.947c0-51.736,42.09-93.826,93.827-93.826
	c50.928,0,92.509,40.785,93.795,91.407C389.284,67.25,329.416,8.17,256,8.17c-74.224,0-134.61,60.385-134.61,134.609
	c0,29.562,9.414,57.629,27.222,81.163L360.366,503.83l19.38-41.982l45.669-7.231L213.659,174.727z"/>
<g>
	<path style="fill:#1D2328;" d="M240.439,386.451c-3.6-2.723-8.724-2.012-11.446,1.586l-75.653,99.995l-13.668-29.609
		c-1.144-2.476-3.447-4.219-6.141-4.645l-32.208-5.1l89.561-118.377c2.722-3.598,2.012-8.723-1.586-11.445
		c-3.6-2.722-8.723-2.012-11.446,1.586L80.07,449.686c-1.732,2.29-2.135,5.32-1.062,7.983c1.072,2.662,3.464,4.568,6.3,5.017
		l41.358,6.549l17.55,38.019c1.203,2.607,3.686,4.39,6.541,4.698c0.294,0.032,0.587,0.047,0.879,0.047
		c2.541,0,4.961-1.187,6.514-3.241l83.875-110.863C244.747,394.298,244.036,389.173,240.439,386.451z"/>
	<path style="fill:#1D2328;" d="M431.929,449.687L317.385,298.288l52.516-69.413c18.893-24.968,28.879-54.739,28.879-86.094
		C398.779,64.051,334.727,0,255.999,0c-78.729,0-142.78,64.051-142.78,142.779c0,31.357,9.986,61.127,28.877,86.092l211.753,279.886
		c1.555,2.053,3.973,3.241,6.514,3.241c0.292,0,0.585-0.015,0.879-0.047c2.854-0.308,5.337-2.092,6.541-4.698l17.55-38.019
		l41.359-6.549c2.836-0.449,5.228-2.353,6.301-5.017C434.064,455.007,433.661,451.976,431.929,449.687z M378.466,453.778
		c-2.694,0.427-4.997,2.169-6.141,4.645l-13.668,29.609L155.126,219.013c-16.726-22.104-25.567-48.465-25.567-76.234
		c0-69.718,56.722-126.439,126.441-126.439s126.439,56.721,126.439,126.439c0,27.767-8.841,54.129-25.569,76.236l-49.729,65.731
		l-40.896-54.054l38.609-51.033c8.084-10.683,12.358-23.437,12.358-36.879c0-33.753-27.46-61.212-61.211-61.212
		c-33.753,0-61.212,27.46-61.212,61.212c0,13.443,4.272,26.195,12.354,36.877l42.245,55.838c0.061,0.084,0.123,0.167,0.188,0.248
		l50.945,67.336c0.066,0.092,0.134,0.182,0.205,0.27l109.951,145.33L378.466,453.778z M255.999,217.151l-35.828-47.355
		c-5.917-7.821-9.045-17.163-9.045-27.017c0-24.743,20.13-44.872,44.872-44.872c24.742,0,44.871,20.129,44.871,44.872
		c0,9.854-3.129,19.197-9.048,27.019L255.999,217.151z"/>
</g>
</svg>